<mxfile host="app.diagrams.net" modified="2023-12-01T04:54:31.290Z" agent="Mozilla/5.0 (Macintosh; Intel Mac OS X 10_15_7) AppleWebKit/537.36 (KHTML, like Gecko) Chrome/119.0.0.0 Safari/537.36" etag="bCBg5tJu-pRMwgoyJi8A" version="22.1.5" type="github">
  <diagram name="Page-1" id="1fiX-9RAwbJ8XogaE7p7">
    <mxGraphModel dx="700" dy="636" grid="1" gridSize="10" guides="1" tooltips="1" connect="1" arrows="1" fold="1" page="1" pageScale="1" pageWidth="850" pageHeight="1100" math="0" shadow="0">
      <root>
        <mxCell id="0" />
        <mxCell id="1" parent="0" />
        <mxCell id="tP3W_F6CfQ0z6ljIj4XV-1" value="&lt;font style=&quot;font-size: 20px;&quot;&gt;Homepages&lt;/font&gt;" style="rounded=1;whiteSpace=wrap;html=1;fontFamily=Times New Roman;fontStyle=1;fillColor=#dae8fc;strokeColor=#6c8ebf;" parent="1" vertex="1">
          <mxGeometry x="355" y="250" width="125" height="50" as="geometry" />
        </mxCell>
        <mxCell id="tP3W_F6CfQ0z6ljIj4XV-7" value="" style="rounded=1;whiteSpace=wrap;html=1;fontFamily=Times New Roman;fontStyle=1;fillColor=#f8cecc;strokeColor=#b85450;align=left;" parent="1" vertex="1">
          <mxGeometry x="287.5" y="330" width="260" height="140" as="geometry" />
        </mxCell>
        <mxCell id="tP3W_F6CfQ0z6ljIj4XV-8" value="&lt;span&gt;&lt;font face=&quot;Times New Roman&quot;&gt;Internal Linkage&lt;/font&gt;&lt;/span&gt;" style="rounded=1;whiteSpace=wrap;html=1;fontStyle=0" parent="1" vertex="1">
          <mxGeometry x="305" y="340" width="105" height="40" as="geometry" />
        </mxCell>
        <mxCell id="tP3W_F6CfQ0z6ljIj4XV-9" value="&lt;span&gt;&lt;font face=&quot;Times New Roman&quot;&gt;Keywords&lt;/font&gt;&lt;/span&gt;" style="rounded=1;whiteSpace=wrap;html=1;fontStyle=0" parent="1" vertex="1">
          <mxGeometry x="425" y="340" width="105" height="40" as="geometry" />
        </mxCell>
        <mxCell id="tP3W_F6CfQ0z6ljIj4XV-10" value="&lt;span&gt;&lt;font face=&quot;Times New Roman&quot;&gt;Meta Tags&lt;/font&gt;&lt;/span&gt;" style="rounded=1;whiteSpace=wrap;html=1;fontStyle=0" parent="1" vertex="1">
          <mxGeometry x="305" y="390" width="105" height="40" as="geometry" />
        </mxCell>
        <mxCell id="tP3W_F6CfQ0z6ljIj4XV-11" value="&lt;span&gt;&lt;font face=&quot;Times New Roman&quot;&gt;Website Design&lt;/font&gt;&lt;/span&gt;" style="rounded=1;whiteSpace=wrap;html=1;fontStyle=0" parent="1" vertex="1">
          <mxGeometry x="425" y="390" width="105" height="40" as="geometry" />
        </mxCell>
        <mxCell id="tP3W_F6CfQ0z6ljIj4XV-12" value="" style="endArrow=classic;html=1;rounded=0;exitX=0.5;exitY=1;exitDx=0;exitDy=0;entryX=0.5;entryY=0;entryDx=0;entryDy=0;" parent="1" source="tP3W_F6CfQ0z6ljIj4XV-1" target="tP3W_F6CfQ0z6ljIj4XV-7" edge="1">
          <mxGeometry width="50" height="50" relative="1" as="geometry">
            <mxPoint x="420" y="310" as="sourcePoint" />
            <mxPoint x="430" y="360" as="targetPoint" />
          </mxGeometry>
        </mxCell>
        <mxCell id="tP3W_F6CfQ0z6ljIj4XV-13" value="&lt;b&gt;&lt;font style=&quot;font-size: 15px;&quot; face=&quot;Times New Roman&quot;&gt;Internal Factors&lt;/font&gt;&lt;/b&gt;" style="rounded=1;whiteSpace=wrap;html=1;strokeColor=none;fillColor=none;" parent="1" vertex="1">
          <mxGeometry x="357.5" y="420" width="120" height="60" as="geometry" />
        </mxCell>
        <mxCell id="tP3W_F6CfQ0z6ljIj4XV-14" value="" style="rounded=1;whiteSpace=wrap;html=1;fontFamily=Times New Roman;fontStyle=1;fillColor=#fff2cc;strokeColor=#d6b656;align=left;" parent="1" vertex="1">
          <mxGeometry x="287.5" y="70" width="260" height="150" as="geometry" />
        </mxCell>
        <mxCell id="tP3W_F6CfQ0z6ljIj4XV-15" value="" style="endArrow=classic;html=1;rounded=0;entryX=0.5;entryY=1;entryDx=0;entryDy=0;exitX=0.5;exitY=0;exitDx=0;exitDy=0;" parent="1" source="tP3W_F6CfQ0z6ljIj4XV-1" target="tP3W_F6CfQ0z6ljIj4XV-14" edge="1">
          <mxGeometry width="50" height="50" relative="1" as="geometry">
            <mxPoint x="428" y="310" as="sourcePoint" />
            <mxPoint x="428" y="340" as="targetPoint" />
          </mxGeometry>
        </mxCell>
        <mxCell id="tP3W_F6CfQ0z6ljIj4XV-16" value="&lt;b&gt;&lt;font style=&quot;font-size: 15px;&quot; face=&quot;Times New Roman&quot;&gt;External Factors&lt;/font&gt;&lt;/b&gt;" style="rounded=1;whiteSpace=wrap;html=1;strokeColor=none;fillColor=none;" parent="1" vertex="1">
          <mxGeometry x="357.5" y="60" width="120" height="60" as="geometry" />
        </mxCell>
        <mxCell id="tP3W_F6CfQ0z6ljIj4XV-17" value="&lt;span&gt;&lt;font face=&quot;Times New Roman&quot;&gt;External Factors&lt;/font&gt;&lt;/span&gt;" style="rounded=1;whiteSpace=wrap;html=1;fontStyle=0" parent="1" vertex="1">
          <mxGeometry x="425" y="160" width="105" height="40" as="geometry" />
        </mxCell>
        <mxCell id="tP3W_F6CfQ0z6ljIj4XV-18" value="&lt;span&gt;&lt;font face=&quot;Times New Roman&quot;&gt;Social Media&lt;/font&gt;&lt;/span&gt;" style="rounded=1;whiteSpace=wrap;html=1;fontStyle=0" parent="1" vertex="1">
          <mxGeometry x="305" y="160" width="105" height="40" as="geometry" />
        </mxCell>
        <mxCell id="tP3W_F6CfQ0z6ljIj4XV-19" value="&lt;span&gt;&lt;font face=&quot;Times New Roman&quot;&gt;Site Guide&lt;/font&gt;&lt;/span&gt;" style="rounded=1;whiteSpace=wrap;html=1;fontStyle=0" parent="1" vertex="1">
          <mxGeometry x="425" y="110" width="105" height="40" as="geometry" />
        </mxCell>
      </root>
    </mxGraphModel>
  </diagram>
</mxfile>
